<svg width="400" height="300" viewBox="0 0 400 300" fill="none" xmlns="http://www.w3.org/2000/svg">
  <!-- Background elements -->
  <circle cx="200" cy="150" r="120" fill="#F3F4F6" />
  <circle cx="200" cy="150" r="100" fill="#EEF2FF" />
  
  <!-- Decorative elements -->
  <circle cx="100" cy="100" r="20" fill="#C7D2FE" opacity="0.6" />
  <circle cx="300" cy="200" r="30" fill="#C7D2FE" opacity="0.6" />
  <circle cx="150" cy="250" r="15" fill="#C7D2FE" opacity="0.6" />
  
  <!-- Phone icon with modern design -->
  <rect x="120" y="80" width="160" height="140" rx="20" fill="#E5E7EB" />
  <rect x="130" y="90" width="140" height="120" rx="10" fill="#9CA3AF" />
  
  <!-- Contact icons with modern design -->
  <circle cx="180" cy="120" r="15" fill="#3B82F6" />
  <circle cx="220" cy="120" r="15" fill="#10B981" />
  <circle cx="200" cy="160" r="15" fill="#6366F1" />
  
  <!-- Email icon with modern design -->
  <path d="M250 100L200 130L150 100" stroke="#6B7280" stroke-width="3" stroke-linecap="round" stroke-linejoin="round" />
  <rect x="150" y="95" width="100" height="70" rx="10" stroke="#6B7280" stroke-width="3" fill="none" />
  
  <!-- Message bubble with modern design -->
  <path d="M180 180C180 177.239 182.239 175 185 175H215C217.761 175 220 177.239 220 180V200C220 202.761 217.761 205 215 205H185C182.239 205 180 202.761 180 200V180Z" fill="#6366F1" />
  <path d="M200 205L190 215H210L200 205Z" fill="#6366F1" />
  
  <!-- Decorative dots -->
  <circle cx="185" cy="190" r="3" fill="white" />
  <circle cx="195" cy="190" r="3" fill="white" />
  <circle cx="205" cy="190" r="3" fill="white" />
</svg> 